<svg width="307" height="153" viewBox="0 0 307 153" fill="none" xmlns="http://www.w3.org/2000/svg">
<path d="M9.856 119.28C8.23467 119.28 7.12533 118.811 6.528 117.872C5.93067 116.933 5.632 115.909 5.632 114.8C5.632 109.509 6.144 103.451 7.168 96.624C8.27733 89.7973 9.6 83.0133 11.136 76.272C12.5013 70.5547 13.9947 65.2213 15.616 60.272C17.3227 55.3227 18.816 51.2693 20.096 48.112C21.9733 43.6747 24.1067 40.304 26.496 38C28.9707 35.6107 31.8293 34.416 35.072 34.416C37.4613 34.416 39.5947 35.2267 41.472 36.848C43.3493 38.384 44.4587 41.2 44.8 45.296C45.312 50.2453 45.9093 55.2373 46.592 60.272C47.2747 65.3067 48.0427 69.9147 48.896 74.096C49.7493 78.192 50.6453 81.3493 51.584 83.568C52.352 85.5307 53.4613 86.512 54.912 86.512C56.5333 86.512 57.9413 85.488 59.136 83.44C60.2453 81.5627 61.44 79.0027 62.72 75.76C64 72.5173 65.2373 69.104 66.432 65.52C67.712 61.8507 68.8213 58.5227 69.76 55.536C70.8693 52.2933 72.1067 49.0507 73.472 45.808C74.9227 42.48 76.7573 39.7493 78.976 37.616C81.1947 35.3973 83.968 34.288 87.296 34.288C90.368 34.288 92.544 35.3547 93.824 37.488C95.1893 39.536 95.872 42.8213 95.872 47.344C95.872 50.8427 95.744 54.512 95.488 58.352C95.4027 60.5707 95.2747 62.8747 95.104 65.264C95.0187 67.568 94.976 69.9573 94.976 72.432C94.976 76.272 95.1467 80.3253 95.488 84.592C95.9147 88.8587 96.6827 92.8693 97.792 96.624C98.9867 100.379 100.736 103.536 103.04 106.096C103.723 106.693 104.32 107.376 104.832 108.144C105.429 108.912 105.728 109.765 105.728 110.704C105.728 112.837 104.576 114.8 102.272 116.592C100.053 118.299 97.4933 119.152 94.592 119.152C91.9467 119.152 89.984 118.299 88.704 116.592C87.424 114.885 86.4 112.581 85.632 109.68C84.7787 106.096 84.1813 102.256 83.84 98.16C83.4987 94.064 83.328 90.096 83.328 86.256C83.328 80.112 83.5413 74.48 83.968 69.36C84.48 64.1547 84.736 60.3147 84.736 57.84C84.736 56.4747 84.608 55.4933 84.352 54.896C84.096 54.2133 83.456 53.872 82.432 53.872C81.2373 53.872 80.2133 54.4267 79.36 55.536C78.592 56.56 77.952 58.0107 77.44 59.888C76.3307 63.472 75.0933 67.312 73.728 71.408C72.3627 75.504 70.912 79.5147 69.376 83.44C67.9253 87.3653 66.3467 90.864 64.64 93.936C62.6773 97.52 60.544 99.952 58.24 101.232C56.0213 102.427 53.76 103.024 51.456 103.024C47.872 103.024 45.1413 101.915 43.264 99.696C41.472 97.392 40.1493 94.8747 39.296 92.144C38.1867 88.4747 37.1627 83.696 36.224 77.808C35.2853 71.8347 34.6027 65.136 34.176 57.712C34.0053 54.5547 32.9813 52.976 31.104 52.976C29.056 52.976 27.4347 54.512 26.24 57.584C25.216 60.656 24.2347 64.2827 23.296 68.464C22.3573 72.56 21.5893 76.8693 20.992 81.392C20.48 85.8293 20.224 90.224 20.224 94.576C20.224 98.2453 20.352 101.445 20.608 104.176C20.9493 106.907 21.12 109.467 21.12 111.856C21.12 113.563 20.4373 114.971 19.072 116.08C17.792 117.189 16.256 118 14.464 118.512C12.672 119.024 11.136 119.28 9.856 119.28Z" fill="#5E8254"/>
<path d="M130.112 105.96C123.072 105.96 117.632 103.752 113.792 99.336C109.952 94.92 108.032 88.808 108.032 81C108.032 73.128 110.016 67 113.984 62.616C117.952 58.232 123.456 56.04 130.496 56.04C137.568 56.04 142.944 58.312 146.624 62.856C150.336 67.368 152.192 73.416 152.192 81C152.192 88.584 150.272 94.648 146.432 99.192C142.624 103.704 137.184 105.96 130.112 105.96ZM130.304 96.36C136.384 96.36 139.424 91.24 139.424 81C139.424 70.696 136.384 65.544 130.304 65.544C127.296 65.544 124.96 66.744 123.296 69.144C121.632 71.512 120.8 75.464 120.8 81C120.8 86.504 121.632 90.44 123.296 92.808C124.96 95.176 127.296 96.36 130.304 96.36ZM181.862 105.96C174.822 105.96 169.382 103.752 165.542 99.336C161.702 94.92 159.782 88.808 159.782 81C159.782 73.128 161.766 67 165.734 62.616C169.702 58.232 175.206 56.04 182.246 56.04C189.318 56.04 194.694 58.312 198.374 62.856C202.086 67.368 203.942 73.416 203.942 81C203.942 88.584 202.022 94.648 198.182 99.192C194.374 103.704 188.934 105.96 181.862 105.96ZM182.054 96.36C188.134 96.36 191.174 91.24 191.174 81C191.174 70.696 188.134 65.544 182.054 65.544C179.046 65.544 176.71 66.744 175.046 69.144C173.382 71.512 172.55 75.464 172.55 81C172.55 86.504 173.382 90.44 175.046 92.808C176.71 95.176 179.046 96.36 182.054 96.36ZM230.73 106.344C226.858 106.344 223.498 105.304 220.65 103.224C217.802 101.144 215.594 98.216 214.026 94.44C212.49 90.664 211.722 86.248 211.722 81.192C211.722 73.32 213.322 67.16 216.522 62.712C219.754 58.264 224.554 56.04 230.922 56.04C234.186 56.04 236.938 56.856 239.178 58.488C241.45 60.088 242.922 62.408 243.594 65.448L242.73 58.44V32.04H254.058V105H243.594V95.208C242.73 98.504 241.21 101.192 239.034 103.272C236.858 105.32 234.09 106.344 230.73 106.344ZM233.514 96.84C235.818 96.84 237.882 95.64 239.706 93.24C241.53 90.808 242.442 86.856 242.442 81.384C242.442 76.392 241.738 72.536 240.33 69.816C238.922 67.096 236.746 65.736 233.802 65.736C232.298 65.736 230.794 66.2 229.29 67.128C227.818 68.056 226.586 69.656 225.594 71.928C224.602 74.168 224.106 77.256 224.106 81.192C224.106 86.472 225.018 90.408 226.842 93C228.666 95.56 230.89 96.84 233.514 96.84ZM270.725 123.144L278.501 101.736L260.549 57.192H273.893L280.997 78.504L284.069 89.544L287.141 78.504L294.341 57.192H306.917L282.533 123.144H270.725Z" fill="#5E8254"/>
</svg>
